<svg width="1439" height="244" xmlns="http://www.w3.org/2000/svg" class="wave-top">

 <g>
  <title>Layer 1</title>
  <g id="svg_1" fill-rule="evenodd" fill="none">
   <g id="svg_2" fill-rule="nonzero">
    <g id="svg_3" fill="#f8fafc" class="wave">
     <path id="svg_4" d="m1439,70c-56.445,-19.7 -97.445,-32.7 -123,-39c-57.5,-14.176 -110.293,-19.474 -148,-23c-39.289,-3.674 -124.574,-3.525 -189,0c-25.75,1.409 -57.75,4.742 -96,10c-38.878,5.787 -65.545,10.121 -80,13c-27.167,5.41 -75.864,16.77 -91,20c-52.977,11.309 -91.456,22.729 -129,29c-66.475,11.104 -99.475,12.438 -155,14c-49.51,-1.516 -86.177,-3.516 -110,-6c-40.429,-4.217 -87.263,-13.264 -114,-18c-50.371,-8.924 -118.704,-26.257 -205,-52l0,-32l1440,0l0,84z"/>
    </g>
    <g id="svg_5" fill="#FFFFFF">
     <g id="svg_6" transform="rotate(-180, 719.5, 74.5) translate(-719.5, -68.5)">
      <path id="svg_7" opacity="0.1" d="m719.5,74.5c90.72834,0.92753 147.91275,27.18793 291.91018,59.9119c95.99828,21.81598 251.69489,29.42288 467.08982,22.82071c-289.66393,73.52174 -542.66394,70.93529 -759,-7.75936"/>
      <path id="svg_8" opacity="0.1" d="m819.5,179.2085c177.41333,-32.47391 326.14788,-52.18383 446.20363,-59.12979c120.05576,-6.94596 264.32122,-3.7808 432.79637,9.49546c-47.93003,1.04834 -168.69673,19.77134 -362.3001,56.16901c-193.60336,36.39766 -365.83666,34.21943 -516.6999,-6.53468z"/>
      <path id="svg_9" opacity="0.2" d="m1765.5,126.15213c84.83045,-22.32332 233.08318,-34.04425 393,-11.48645l0,79.83432c-167.82789,-42.05647 -298.82789,-64.83909 -393,-68.34787z"/>
     </g>
    </g>
   </g>
  </g>
 </g>
</svg>